<svg width="32" height="32" viewBox="0 0 32 32" fill="none" xmlns="http://www.w3.org/2000/svg" role="img" aria-label="twstock radar">
  <defs>
    <radialGradient id="glow" cx="50%" cy="50%" r="50%">
      <stop offset="0%" stop-color="#19cd94" stop-opacity="0.35"/>
      <stop offset="70%" stop-color="#0a2318" stop-opacity="0"/>
    </radialGradient>
    <radialGradient id="scope" cx="42%" cy="38%" r="72%">
      <stop offset="0%" stop-color="#0b2a1c"/>
      <stop offset="100%" stop-color="#041009"/>
    </radialGradient>
  </defs>

  <!-- app-icon tile: stands out on both light and dark tab bars -->
  <rect x="0" y="0" width="32" height="32" rx="7" fill="#06140e"/>

  <!-- scope -->
  <circle cx="16" cy="16" r="12.6" fill="url(#scope)"/>
  <circle cx="16" cy="16" r="12.6" fill="url(#glow)"/>

  <!-- range rings + crosshair -->
  <g stroke="#19cd94" fill="none" stroke-linecap="round">
    <circle cx="16" cy="16" r="12.4" stroke-width="1.1"/>
    <circle cx="16" cy="16" r="7.6" stroke-width="0.8" stroke-opacity="0.55"/>
    <line x1="3.6" y1="16" x2="28.4" y2="16" stroke-width="0.6" stroke-opacity="0.22"/>
    <line x1="16" y1="3.6" x2="16" y2="28.4" stroke-width="0.6" stroke-opacity="0.22"/>
  </g>

  <!-- rotating sweep: bright leading beam + trailing afterglow -->
  <g>
    <path d="M16 16 L23.17 5.76 A12.4 12.4 0 0 1 27.65 11.72 Z" fill="#3ee9b0" fill-opacity="0.34"/>
    <path d="M16 16 L27.65 11.72 A12.4 12.4 0 0 1 27.65 20.28 Z" fill="#3ee9b0" fill-opacity="0.15"/>
    <line x1="16" y1="16" x2="23.17" y2="5.76" stroke="#3ee9b0" stroke-width="2.4" stroke-opacity="0.35" stroke-linecap="round"/>
    <line x1="16" y1="16" x2="23.17" y2="5.76" stroke="#8affd0" stroke-width="1.1" stroke-linecap="round"/>
    <animateTransform attributeName="transform" type="rotate" from="0 16 16" to="360 16 16" dur="4s" repeatCount="indefinite"/>
  </g>

  <!-- contact blip near the beam -->
  <circle cx="21.1" cy="9.9" r="2.3" fill="#7dffcf" fill-opacity="0.25"/>
  <circle cx="21.1" cy="9.9" r="1.15" fill="#c8ffe8"/>

  <!-- center -->
  <circle cx="16" cy="16" r="1.15" fill="#8affd0"/>
</svg>
